<?xml version="1.0" encoding="UTF-8"?>
<!DOCTYPE svg PUBLIC "-//W3C//DTD SVG 1.1//EN" "http://www.w3.org/Graphics/SVG/1.1/DTD/svg11.dtd">
<!-- Creator: CorelDRAW 2020 (64 Bit) -->
<svg xmlns="http://www.w3.org/2000/svg" xml:space="preserve" width="25.4mm" height="25.4mm" version="1.1" style="shape-rendering:geometricPrecision; text-rendering:geometricPrecision; image-rendering:optimizeQuality; fill-rule:evenodd; clip-rule:evenodd"
viewBox="0 0 2540 2540"
 xmlns:xlink="http://www.w3.org/1999/xlink"
 xmlns:xodm="http://www.corel.com/coreldraw/odm/2003">
 <defs>
  <style type="text/css">
   <![CDATA[
    .fil1 {fill:#4DAF11}
    .fil0 {fill:#FEFEFE}
   ]]>
  </style>
 </defs>
 <g id="Camada_x0020_1">
  <metadata id="CorelCorpID_0Corel-Layer"/>
  <g id="_1146402944">
   <path class="fil0" d="M889 1380.07c21474836.48,-21474836.48 21474836.48,-21474836.48 21474836.48,-21474836.48l-21474836.48 21474836.48c21474836.48,-21474836.48 21474836.48,-21474836.48 21474836.48,-21474836.48l-21474836.48 21474836.48c21474836.48,-21474836.48 21474836.48,-21474836.48 21474836.48,-21474836.48l-21474836.48 21474836.48c21474836.48,-21474836.48 21474836.48,-21474836.48 21474836.48,-21474836.48l-21474836.48 21474836.48zm0 0c21474836.48,-21474836.48 21474836.48,-21474836.48 21474836.48,-21474836.48l-21474836.48 21474836.48zm0 0c21474836.48,-21474836.48 21474836.48,-21474836.48 21474836.48,-21474836.48l-21474836.48 21474836.48zm0 0c21474836.48,-21474836.48 21474836.48,-21474836.48 21474836.48,-21474836.48l-21474836.48 21474836.48zm0 0c21474836.48,-21474836.48 21474836.48,-21474836.48 21474836.48,-21474836.48l-21474836.48 21474836.48zm0 0c21474836.48,-21474836.48 21474836.48,-21474836.48 21474836.48,-21474836.48l-21474836.48 21474836.48c21474836.48,-21474836.48 21474836.48,-21474836.48 21474836.48,-21474836.48l-21474836.48 21474836.48c21474836.48,-21474836.48 21474836.48,-21474836.48 21474836.48,-21474836.48l-21474836.48 21474836.48zm0 0c21474836.48,-21474836.48 21474836.48,-21474836.48 21474836.48,-21474836.48l-21474836.48 21474836.48c21474836.48,-21474836.48 21474836.48,-21474836.48 21474836.48,-21474836.48l-21474836.48 21474836.48zm0 0c21474836.48,-21474836.48 21474836.48,-21474836.48 21474836.48,-21474836.48l-21474836.48 21474836.48c21474836.48,-21474836.48 21474836.48,-21474836.48 21474836.48,-21474836.48l-21474836.48 21474836.48z"/>
  </g>
  <path class="fil1" d="M1366.48 2340.26c-83.32,15.41 -76.66,63.11 -264.34,-36.38 -173.69,-92.08 -265.2,-179.34 -396.14,-307.77 -40.07,-39.3 -122.38,-156.47 -152.21,-205.08 -218.23,-355.55 -204.27,-640.9 -204.27,-1035.32 0,-50.38 -4.9,-135.3 2.09,-181.3l273.26 -89.61c88.96,-33.66 172.79,-66.69 257.78,-104.87 129.29,-58.07 241.35,-116.78 360.78,-183.59 47.44,-26.54 50.97,11.78 120.8,36.92 48.74,48.28 487.97,231.82 604.73,270.48l221.38 70.57c-0.21,543.83 37.4,904.43 -283.85,1330.58 -41.6,55.19 -146.03,169.79 -194.82,210.42l-237.24 168c-21.1,12.23 -93.54,43.83 -107.95,56.95zm-434.86 -1765.72c16.34,-6.37 18.31,-4.6 27.43,-17.19 4.3,-5.95 9.81,-19.88 9.95,-30.78 0.38,-29.62 -15.62,-39.51 -38.38,-47.28 -84.7,-8.83 -80.78,106.9 1,95.25zm491.38 1620.44c23.63,-6.32 43.8,-18.26 45.38,-47.45 1.96,-35.78 -16.97,-47.68 -45.35,-52.99 -75.88,4.66 -76.86,99.26 -0.03,100.44zm215.96 -282.71c-12.78,6.58 -138.11,116.36 -143.86,131.07 -17.78,45.51 32.47,122.4 142.57,2.42 46.36,-26.23 236.65,-238.93 251.54,-291.42 11.41,-40.19 -16.56,-71.11 -57.74,-62.92 -29.23,5.81 -87.31,100.84 -128.26,149.01 -20.32,23.9 -52.66,50.44 -64.25,71.84zm-1044.58 -1206.78c43.57,-11.2 86.47,-29.82 126.98,-44.25 43.5,-15.5 100.57,-24.4 103.93,-71.44 4.67,-65.51 -63.65,-52.61 -104.5,-36.09 -39.28,15.88 -87.02,29.94 -125.74,46.92 -29.92,7.77 -123.78,34.19 -138.6,56.95 -10.38,15.94 -24.75,235.26 9.95,261.05 22.92,17.03 58.64,9.24 71.8,-8.93 20.05,-27.69 6.84,-142.1 12.13,-185.99l44.05 -18.22zm839.65 457.01c63.87,-34.87 233.77,-262.16 293.65,-263.99 55.41,-1.69 84.59,61.66 45.41,105.06 -60.28,66.76 -352.58,341.89 -371.89,375.27l-241.15 238.35c-41.38,39.74 -78.24,28.71 -113,-4.91l-239.62 -240.23c-20.44,-20.48 -67.37,-54.18 -58.12,-101.88 8.01,-41.38 58.74,-61.3 96.36,-37.88 35.06,21.83 214.04,227.75 249.52,236.03 41.41,9.65 77.31,-40.66 96.32,-59.72 28.81,-28.9 53.7,-53.86 82.53,-82.77 32.02,-32.1 143.67,-136.25 159.99,-163.33zm355.62 -30.24c33.26,-33.32 87.1,-76.57 99.11,-140.83 26.82,-143.5 -126.24,-244.28 -248.21,-168.32 -31.09,19.36 -225.99,209.7 -239.68,235.22l-291.73 288.4c-23.83,-13.06 -119.82,-116.36 -147.88,-144.51 -43.72,-43.86 -102.26,-106.97 -203.49,-72.97 -62.85,21.1 -122.64,88.26 -108.72,178.61 11.58,75.19 85.82,132.62 125.22,171.99 50.2,50.16 96.52,96.41 146.8,146.48 39.26,39.1 96.57,115.77 182.66,117.54 99.63,2.05 179.86,-106.36 258.76,-185.61 141.75,-142.42 285.06,-283.6 427.16,-426zm-378.65 -984.14c-28.95,-19.73 -62.45,-36.6 -93.1,-54.31 -52.88,-30.55 -62.08,-20.23 -107.65,5.9 -227.15,130.2 -366.39,193.68 -621.64,290.12 -71.19,26.89 -152.41,53.73 -228.6,75.35 -130.8,37.13 -112.21,22.46 -112.21,189.22 0,190.09 -10.21,406.31 12.68,592.03 43.04,349.24 170.03,583.51 384.7,832.03 12.8,14.82 25.79,22.08 38.77,35.6l75.94 73.64c18.35,16.48 22.2,21.14 42.69,37 55.12,42.66 110.85,84.73 178.62,125.35 55.12,33.04 136.02,78.63 204.14,99.71 100.43,31.09 153.44,10.73 238.03,-28.43 48.45,-15.82 125.31,-63.83 163.98,-88.87 116.05,-75.17 182.59,-130.49 276.43,-224.93 134.16,-134.99 222.01,-273.37 303.9,-447.9 53.61,-114.27 87.89,-258.86 108.1,-393.42 22.7,-151.04 14.35,-333.26 14.35,-489.17 0,-251.05 31.26,-270.68 -74.33,-301.5 -160.29,-46.78 -312.43,-97.07 -464.44,-164.72 -58.43,-26.01 -114.95,-50.9 -172.25,-78.58 -55.85,-26.98 -113.72,-62.66 -168.11,-84.12z"/>
 </g>
</svg>
